<svg id="Layer_1" data-name="Layer 1" xmlns="http://www.w3.org/2000/svg" viewBox="0 0 216 24.8"><defs><style>.cls-1{fill:#fff;}</style></defs><title>NetFormationk</title><path class="cls-1" d="M55.7,4.4v6h9.7v4.3H55.7v9.9H50.9V.1H67V4.4Z"/><path class="cls-1" d="M82.1,22.6a7.3,7.3,0,0,1-5.6,2.2A7.22,7.22,0,0,1,71,22.6c-1.6-1.7-2-3.7-2-7s.4-5.3,2-6.9a7.22,7.22,0,0,1,5.5-2.2,7.46,7.46,0,0,1,5.6,2.2c1.6,1.7,2,3.7,2,6.9S83.8,20.9,82.1,22.6ZM78.7,11.3a2.86,2.86,0,0,0-2.1-.8,3,3,0,0,0-2.1.8c-.9.9-1,2.5-1,4.3s.1,3.4,1,4.4a3.16,3.16,0,0,0,4.2,0c.9-.9,1-2.5,1-4.4S79.6,12.2,78.7,11.3Z"/><path class="cls-1" d="M97.9,11.5a3,3,0,0,0-2.4-1.1c-1.4,0-2.9,1-2.9,3.3V24.5H88.1V6.7h4.4V8.4A6.28,6.28,0,0,1,97,6.5a5.05,5.05,0,0,1,4.2,1.7Z"/><path class="cls-1" d="M124.4,24.6V13.7c0-2.4-1.5-3.3-3-3.3a2.88,2.88,0,0,0-3,3.2V24.5h-4.5V13.7c0-2.4-1.5-3.3-3-3.3s-3,.8-3,3.3V24.5h-4.5V6.7h4.4V8.4a6.36,6.36,0,0,1,4.5-1.9A5.32,5.32,0,0,1,117,8.8a6.76,6.76,0,0,1,5.4-2.3,6.23,6.23,0,0,1,4.4,1.6,6.86,6.86,0,0,1,2,5.1V24.7h-4.4Z"/><path class="cls-1" d="M142.6,24.6V23.1a5.39,5.39,0,0,1-4.4,1.7,6.14,6.14,0,0,1-4.6-1.6,5.51,5.51,0,0,1-1.5-4c0-2.9,2-5.2,6.1-5.2h4.2v-.9c0-2-1-2.8-3.3-2.8a3.7,3.7,0,0,0-3.4,1.5L132.8,9c1.8-1.9,3.5-2.5,6.5-2.5,5,0,7.6,2.1,7.6,6.3V24.6h-4.3Zm-.1-7.6h-3.6c-1.6,0-2.5.8-2.5,2s.8,2.1,2.6,2.1a3.42,3.42,0,0,0,2.8-.9,2.88,2.88,0,0,0,.7-2.3Z"/><path class="cls-1" d="M157.1,24.6a4.89,4.89,0,0,1-5.2-5.1V10.6H150V7.2h1.9V1.9h4.5V7.2h3.2v3.4h-3.2v8.6a1.4,1.4,0,0,0,1.5,1.6h1.6v3.8h-2.4Z"/><path class="cls-1" d="M163.2,3.6V0h4.6V3.6Zm.1,21V6.7h4.5V24.6Z"/><path class="cls-1" d="M184.9,22.6a7.3,7.3,0,0,1-5.6,2.2,7.22,7.22,0,0,1-5.5-2.2c-1.6-1.7-2-3.7-2-7s.4-5.3,2-6.9a7.22,7.22,0,0,1,5.5-2.2,7.46,7.46,0,0,1,5.6,2.2c1.6,1.7,2,3.7,2,6.9S186.5,20.9,184.9,22.6Zm-3.5-11.3a2.86,2.86,0,0,0-2.1-.8,3,3,0,0,0-2.1.8c-.9.9-1,2.5-1,4.3s.1,3.4,1,4.4a3.16,3.16,0,0,0,4.2,0c.9-.9,1-2.5,1-4.4S182.3,12.2,181.4,11.3Z"/><path class="cls-1" d="M201.3,24.6V13.7c0-2.4-1.5-3.3-3-3.3s-3,.8-3,3.3V24.5h-4.4V6.7h4.4V8.4a6.36,6.36,0,0,1,4.5-1.9A5.73,5.73,0,0,1,204,8.1a6.7,6.7,0,0,1,1.8,5.1V24.7Z"/><path class="cls-1" d="M15.6,24.6,2.6,5V24.6H0V.2H2.5l13,19.6V.2h2.6V24.7Z"/><path class="cls-1" d="M24.2,16.8c0,3.7,1.8,5.8,5,5.8a5.48,5.48,0,0,0,4.4-1.9l1.7,1.5a7.78,7.78,0,0,1-6.2,2.6c-4.5,0-7.4-2.7-7.4-8.7,0-5.5,2.6-8.7,6.9-8.7s6.9,3.2,6.9,8.2v1.1H24.2Zm8.5-4.6a4.45,4.45,0,0,0-8,0,7,7,0,0,0-.5,2.8h8.9A7.22,7.22,0,0,0,32.7,12.2Z"/><path class="cls-1" d="M43.6,24.6c-2.9,0-4.3-2-4.3-4.5V9.7H37.2V7.8h2.1V2.5h2.5V7.8h3.6V9.7H41.8V20c0,1.5.7,2.5,2.3,2.5H55.7v2.1Z"/><path class="cls-1" d="M210.1,8.5a1.72,1.72,0,0,1-1.5-.6l.4-.4a1.37,1.37,0,0,0,1.1.4q.9,0,.9-.6a.52.52,0,0,0-.2-.4c-.1-.1-.2-.1-.5-.2l-.5-.1a1.91,1.91,0,0,1-.8-.3,1.14,1.14,0,0,1-.3-.8c0-.7.5-1.2,1.4-1.2a1.54,1.54,0,0,1,1.3.5l-.4.4a1.61,1.61,0,0,0-.9-.3.71.71,0,0,0-.8.7c0,.2,0,.3.2.4a.76.76,0,0,0,.5.2l.5.1a3.39,3.39,0,0,1,.8.3,1.22,1.22,0,0,1,.3.9C211.6,8,211,8.5,210.1,8.5Z"/><path class="cls-1" d="M215.5,8.5V5.7l-1,2.1H214l-1-2.1V8.5h-.6V4.3h.6l1.2,2.6,1.2-2.6h.6V8.5Z"/></svg>