<svg xmlns="http://www.w3.org/2000/svg" xmlns:xlink="http://www.w3.org/1999/xlink" version="1.0" id="Layer_1" x="0px" y="0px" viewBox="0 0 216 72" xml:space="preserve" enable-background="new 0 0 216 72"><style type="text/css">
	.st0{fill:#FFFFFF;}
</style><path class="st0" d="M60.8 28v6h9.7v4.3h-9.7v9.9h-4.8V23.7h16.1V28H60.8z"/><path class="st0" d="M87.2 46.2c-1.1 1.2-2.9 2.2-5.6 2.2 -2.6 0-4.4-1-5.5-2.2 -1.6-1.7-2-3.7-2-7 0-3.2 0.4-5.3 2-6.9 1.1-1.2 2.9-2.2 5.5-2.2 2.6 0 4.5 1 5.6 2.2 1.6 1.7 2 3.7 2 6.9C89.3 42.5 88.9 44.5 87.2 46.2zM83.8 34.9c-0.5-0.5-1.2-0.8-2.1-0.8 -0.9 0-1.5 0.3-2.1 0.8 -0.9 0.9-1 2.5-1 4.3 0 1.9 0.1 3.4 1 4.4 0.5 0.5 1.2 0.8 2.1 0.8 0.9 0 1.6-0.3 2.1-0.8 0.9-0.9 1-2.5 1-4.4C84.8 37.3 84.7 35.8 83.8 34.9z"/><path class="st0" d="M103 35.1c-0.7-0.7-1.3-1.1-2.4-1.1 -1.4 0-2.9 1-2.9 3.3v10.8h-4.5V30.3h4.4V32c0.9-1 2.6-1.9 4.5-1.9 1.8 0 3 0.4 4.2 1.7L103 35.1z"/><path class="st0" d="M129.5 48.2V37.3c0-2.4-1.5-3.3-3-3.3 -1.4 0-3 0.8-3 3.2v10.9H119V37.3c0-2.4-1.5-3.3-3-3.3 -1.4 0-3 0.8-3 3.3v10.8h-4.5V30.3h4.4v1.7c1.2-1.2 2.8-1.9 4.5-1.9 2 0 3.6 0.7 4.7 2.3 1.5-1.6 3.1-2.3 5.4-2.3 1.8 0 3.4 0.6 4.4 1.6 1.4 1.4 2 3.1 2 5.1v11.5H129.5z"/><path class="st0" d="M147.7 48.2v-1.5c-1.2 1.2-2.3 1.7-4.4 1.7 -2 0-3.5-0.5-4.6-1.6 -1-1-1.5-2.4-1.5-4 0-2.9 2-5.2 6.1-5.2h4.2v-0.9c0-2-1-2.8-3.3-2.8 -1.7 0-2.5 0.4-3.4 1.5l-2.9-2.8c1.8-1.9 3.5-2.5 6.5-2.5 5 0 7.6 2.1 7.6 6.3v11.8H147.7zM147.6 40.6H144c-1.6 0-2.5 0.8-2.5 2 0 1.2 0.8 2.1 2.6 2.1 1.2 0 2-0.1 2.8-0.9 0.5-0.4 0.7-1.2 0.7-2.3V40.6z"/><path class="st0" d="M162.2 48.2c-3.6 0-5.2-2.6-5.2-5.1v-8.9h-1.9v-3.4h1.9v-5.3h4.5v5.3h3.2v3.4h-3.2v8.6c0 1 0.5 1.6 1.5 1.6h1.6v3.8H162.2z"/><path class="st0" d="M168.3 27.2v-3.6h4.6v3.6H168.3zM168.4 48.2V30.3h4.5v17.9H168.4z"/><path class="st0" d="M190 46.2c-1.1 1.2-2.9 2.2-5.6 2.2 -2.6 0-4.4-1-5.5-2.2 -1.6-1.7-2-3.7-2-7 0-3.2 0.4-5.3 2-6.9 1.1-1.2 2.9-2.2 5.5-2.2 2.6 0 4.5 1 5.6 2.2 1.6 1.7 2 3.7 2 6.9C192 42.5 191.6 44.5 190 46.2zM186.5 34.9c-0.5-0.5-1.2-0.8-2.1-0.8 -0.9 0-1.5 0.3-2.1 0.8 -0.9 0.9-1 2.5-1 4.3 0 1.9 0.1 3.4 1 4.4 0.5 0.5 1.2 0.8 2.1 0.8 0.9 0 1.6-0.3 2.1-0.8 0.9-0.9 1-2.5 1-4.4C187.5 37.3 187.4 35.8 186.5 34.9z"/><path class="st0" d="M206.4 48.2V37.3c0-2.4-1.5-3.3-3-3.3 -1.4 0-3 0.8-3 3.3v10.8H196V30.3h4.4v1.7c1.2-1.2 2.8-1.9 4.5-1.9 1.8 0 3.2 0.6 4.2 1.6 1.4 1.4 1.8 3.1 1.8 5.1v11.5H206.4z"/><path class="st0" d="M20.7 48.2l-13-19.6v19.6H5.1V23.8h2.5l13 19.6V23.8h2.6v24.5H20.7z"/><path class="st0" d="M29.3 40.4c0 3.7 1.8 5.8 5 5.8 2 0 3.1-0.6 4.4-1.9l1.7 1.5c-1.7 1.7-3.3 2.6-6.2 2.6 -4.5 0-7.4-2.7-7.4-8.7 0-5.5 2.6-8.7 6.9-8.7 4.4 0 6.9 3.2 6.9 8.2v1.1H29.3zM37.8 35.8c-0.7-1.5-2.2-2.5-4-2.5 -1.8 0-3.3 1-4 2.5 -0.4 0.9-0.4 1.4-0.5 2.8h8.9C38.2 37.2 38.1 36.7 37.8 35.8z"/><path class="st0" d="M48.7 48.2c-2.9 0-4.3-2-4.3-4.5V33.3h-2.1v-1.9h2.1v-5.3h2.5v5.3h3.6v1.9h-3.6v10.3c0 1.5 0.7 2.5 2.3 2.5h11.7v2.1H48.7z"/></svg>